HIERARCHY
ROOT root
{
	OFFSET	0	13.1	24.9
	CHANNELS 6  Xposition Yposition Zposition Xrotation Yrotation Zrotation
	JOINT spine_1
	{
		OFFSET	0	9.99999	0
		CHANNELS 3  Xrotation Yrotation Zrotation
		JOINT spine_2
		{
			OFFSET	0	112	-10
			CHANNELS 3  Xrotation Yrotation Zrotation
			JOINT spine_3
			{
				OFFSET	0	206.5	19.3
				CHANNELS 3  Xrotation Yrotation Zrotation
				JOINT spine_4
				{
					OFFSET	0	110.4	14.6
					CHANNELS 3  Xrotation Yrotation Zrotation
					JOINT neck_1
					{
						OFFSET	0	71.8	-50.3
						CHANNELS 3  Xrotation Yrotation Zrotation
						JOINT neck_2
						{
							OFFSET	0	86.2	-25.8
							CHANNELS 3  Xrotation Yrotation Zrotation
							JOINT head_ee
							{
								OFFSET	0	179.8	-8.7
								CHANNELS 3  Xrotation Yrotation Zrotation
								End Site
								{
									OFFSET	1	0	0
								}
							}
						}
					}
					JOINT left_clavicle
					{
						OFFSET	-43.2	22.4	-70.8
						CHANNELS 3  Xrotation Yrotation Zrotation
						JOINT left_shoulder
						{
							OFFSET	-93.9	-5.79999	48.7
							CHANNELS 3  Xrotation Yrotation Zrotation
							JOINT left_elbow
							{
								OFFSET	-291.4	-30.8	15.2
								CHANNELS 3  Xrotation Yrotation Zrotation
								JOINT left_lowarm_twist
								{
									OFFSET	-110.7	-3.89999	13.6
									CHANNELS 3  Xrotation Yrotation Zrotation
									JOINT left_hand
									{
										OFFSET	-110.7	-3.89999	13.6
										CHANNELS 3  Xrotation Yrotation Zrotation
										JOINT left_ee
										{
											OFFSET	-80.8	-5.10001	12.1
											CHANNELS 3  Xrotation Yrotation Zrotation
											End Site
											{
												OFFSET	1	0	0
											}
										}
									}
								}
							}
						}
					}
					JOINT right_clavicle
					{
						OFFSET	43.2	22.4	-70.8
						CHANNELS 3  Xrotation Yrotation Zrotation
						JOINT right_shoulder
						{
							OFFSET	93.9	-5.79999	48.7
							CHANNELS 3  Xrotation Yrotation Zrotation
							JOINT right_elbow
							{
								OFFSET	291.4	-30.8	15.2
								CHANNELS 3  Xrotation Yrotation Zrotation
								JOINT right_lowarm_twist
								{
									OFFSET	110.7	-3.89999	13.6
									CHANNELS 3  Xrotation Yrotation Zrotation
									JOINT right_hand
									{
										OFFSET	110.7	-3.89999	13.6
										CHANNELS 3  Xrotation Yrotation Zrotation
										JOINT right_ee
										{
											OFFSET	80.8	-5.10001	12.1
											CHANNELS 3  Xrotation Yrotation Zrotation
											End Site
											{
												OFFSET	1	0	0
											}
										}
									}
								}
							}
						}
					}
				}
			}
		}
	}
	JOINT left_hip
	{
		OFFSET	-82.8	-127.5	0.300001
		CHANNELS 3  Xrotation Yrotation Zrotation
		JOINT left_knee
		{
			OFFSET	-28.2	-396.7	2.2
			CHANNELS 3  Xrotation Yrotation Zrotation
			JOINT left_ankle
			{
				OFFSET	-11.7	-411.3	35.4
				CHANNELS 3  Xrotation Yrotation Zrotation
				JOINT left_toes
				{
					OFFSET	0	-60	-88.6
					CHANNELS 3  Xrotation Yrotation Zrotation
					JOINT left_foot_ee
					{
						OFFSET	-22.5	-16.5	-42.2
						CHANNELS 3  Xrotation Yrotation Zrotation
						End Site
						{
							OFFSET	1	0	0
						}
					}
				}
			}
		}
	}
	JOINT right_hip
	{
		OFFSET	82.8	-127.5	0.300001
		CHANNELS 3  Xrotation Yrotation Zrotation
		JOINT right_knee
		{
			OFFSET	28.2	-396.7	2.2
			CHANNELS 3  Xrotation Yrotation Zrotation
			JOINT right_ankle
			{
				OFFSET	11.7	-411.3	35.4
				CHANNELS 3  Xrotation Yrotation Zrotation
				JOINT right_toes
				{
					OFFSET	0	-60	-88.6
					CHANNELS 3  Xrotation Yrotation Zrotation
					JOINT right_foot_ee
					{
						OFFSET	22.5	-16.5	-42.2
						CHANNELS 3  Xrotation Yrotation Zrotation
						End Site
						{
							OFFSET	1	0	0
						}
					}
				}
			}
		}
	}
}
MOTION
Frames: 15
Frame Time: 0.02
4065.21 705.77 -364.555 -3.75209 49.1196 -6.3108 -1.32461 0.563672 1.63052 -1.32325 0.45879 1.66307 -1.30833 0.0597413 1.72414 -1.31232 0.331248 1.69309 -2.99153 11.0612 2.98328 -2.85433 17.8042 4.68887 -0.0 0.0 -0.0 7.27472 -1.74084 14.1396 11.0431 21.2391 58.6982 0.34281 -9.6381 0.0289014 7.24595 0.19837 -0.903713 0.589746 4.63752 5.82951 -0.0 0.0 -0.0 11.5619 13.7828 -23.2384 -1.99336 -8.57984 -61.7633 0.265135 7.48257 -0.0173374 12.3733 -0.269008 1.55463 1.68517 6.84618 -8.4997 0.0 0.0 0.0 10.7882 33.2989 -13.1127 -16.5193 0.320842 2.50598 6.50363 -11.3957 -0.991861 -13.8478 0.0 0.0 -0.0 0.0 -0.0 6.13839 15.0377 10.4111 -18.5688 -0.309925 -2.82023 15.8124 -20.6146 2.2577 1.05679 -0.0 -0.0 0.0 0.0 0.0 
4070.27 708.853 -361.967 -4.84991 49.7282 -5.83335 -1.3051 0.5734 1.82669 -1.30336 0.456022 1.85946 -1.28661 0.0121282 1.9145 -1.29159 0.314281 1.88858 -3.77525 11.0118 2.45132 -3.66024 18.2477 4.23199 -0.0 0.0 -0.0 7.38351 -4.08287 14.3444 11.2858 21.4014 60.1621 0.230234 -6.50669 0.0130872 7.48601 0.202976 -0.934032 0.360613 4.69689 4.34041 -0.0 0.0 -0.0 11.5251 14.0251 -23.1481 -0.28949 -11.1482 -63.1224 0.274772 7.75129 -0.0186148 13.7632 -0.278097 1.73192 1.35489 6.10852 -6.56422 0.0 0.0 0.0 11.5985 30.5578 -11.9808 -15.1386 0.321857 2.29415 8.07817 -12.6222 -1.23475 -11.8354 0.0 0.0 -0.0 0.0 -0.0 6.16786 17.7195 10.2204 -17.2187 -0.31838 -2.61327 14.5979 -27.8605 2.17452 0.871274 -0.0 -0.0 0.0 0.0 0.0 
4063.32 708.99 -364.647 -4.93433 48.8746 -5.58894 -1.26838 0.530069 1.71828 -1.26684 0.419673 1.74852 -1.25233 0.00357451 1.79816 -1.25673 0.28747 1.77504 -4.15354 11.3066 2.5319 -4.04427 18.7851 4.41209 -0.0 0.0 -0.0 6.83499 -1.71322 13.2549 10.4443 22.3054 63.3171 0.201719 -5.70653 0.0100537 7.89346 0.210501 -0.985536 0.753106 6.44679 7.62669 -0.0 0.0 -0.0 11.5319 14.4413 -23.1509 -0.882062 -9.44804 -63.6494 0.248509 7.0182 -0.0152391 13.1221 -0.274439 1.65012 1.371 6.56648 -6.48004 0.0 0.0 0.0 11.3568 32.3795 -11.7361 -14.0726 0.319149 2.13062 8.29441 -12.8137 -1.26839 -11.4508 0.0 0.0 -0.0 0.0 -0.0 6.68664 15.3771 10.3566 -17.4523 -0.317266 -2.64909 14.4318 -26.6754 2.1352 0.736669 -0.0 -0.0 0.0 0.0 0.0 
4058.18 708.502 -368.619 -4.71974 48.5661 -4.74157 -1.22302 0.362597 1.18412 -1.22229 0.286519 1.20479 -1.21547 0.000654164 1.23839 -1.21756 0.196211 1.22275 -4.55453 11.7785 3.82481 -4.44459 18.7377 5.86358 -0.0 0.0 -0.0 6.41317 0.649517 12.4367 10.8041 24.4699 66.1492 0.198479 -5.61544 0.00973405 8.95955 0.228457 -1.12053 0.740605 10.0677 8.94759 -0.0 0.0 -0.0 11.4994 15.3025 -23.0466 -1.40555 -8.72066 -63.7384 0.254585 7.18803 -0.0159905 12.7771 -0.272091 1.60611 1.33725 6.13322 -6.43407 0.0 0.0 0.0 10.9297 32.5428 -12.473 -12.3951 0.308727 1.87345 9.26721 -14.3974 -1.42747 -11.381 0.0 0.0 -0.0 0.0 -0.0 6.76598 13.7887 9.97165 -18.9158 -0.306965 -2.87339 14.7139 -18.182 2.09085 0.151043 -0.0 -0.0 0.0 0.0 0.0 
4058.77 710.694 -369.014 -4.19647 48.5249 -6.02622 -1.53078 0.642991 1.55149 -1.5296 0.542976 1.58925 -1.51292 0.152844 1.67245 -1.51659 0.415023 1.62735 -5.42154 11.1196 3.02237 -5.35426 18.265 5.05455 -0.0 0.0 -0.0 5.90792 -0.749757 11.4228 11.3059 23.8819 67.5752 0.19878 -5.62391 0.00976354 8.85225 0.226764 -1.10693 0.529256 8.07804 6.80057 -0.0 0.0 -0.0 11.6115 15.7332 -23.2843 0.0293153 -9.30284 -64.3483 0.217787 6.1577 -0.0117143 13.3601 -0.275904 1.68048 1.09974 6.15498 -4.81483 0.0 0.0 0.0 10.7766 32.3873 -11.0145 -12.3323 0.308191 1.86384 8.15249 -12.5481 -1.24516 -10.7514 0.0 0.0 -0.0 0.0 -0.0 7.08321 13.5148 10.4138 -19.086 -0.305394 -2.89946 14.7048 -23.8673 2.13982 0.453561 -0.0 -0.0 0.0 0.0 0.0 
4060.55 710.672 -371.49 -4.55219 49.2533 -5.73569 -1.41421 0.548426 1.51588 -1.41305 0.450866 1.5477 -1.39943 0.0762845 1.61021 -1.40289 0.329598 1.57797 -6.16313 11.1059 2.84866 -6.12158 18.4789 4.98156 -0.0 0.0 -0.0 5.54311 -0.891311 10.6993 11.2314 24.1412 68.4156 0.198725 -5.62236 0.0097582 9.18677 0.231959 -1.14934 0.533956 8.25948 6.90263 -0.0 0.0 -0.0 11.5621 16.086 -23.157 -0.312673 -8.82789 -64.7763 0.21364 6.04134 -0.0112737 13.1451 -0.274586 1.65305 1.08482 6.57053 -4.53819 0.0 0.0 0.0 10.9609 31.7236 -10.7839 -11.3592 0.298533 1.71485 7.42117 -12.6534 -1.13725 -11.3607 0.0 0.0 -0.0 0.0 -0.0 6.55924 12.8856 10.5794 -18.761 -0.308325 -2.84968 16.4864 -20.6434 2.34813 1.02668 -0.0 -0.0 0.0 0.0 0.0 
4069.15 710.647 -371.817 -3.75309 49.892 -6.26538 -1.69532 0.685566 1.47014 -1.69431 0.590638 1.51078 -1.67717 0.213077 1.60805 -1.68047 0.464334 1.55424 -7.05452 10.5369 3.25164 -7.03706 17.2563 5.39387 -0.0 0.0 -0.0 5.37117 -2.82665 10.2972 12.1561 22.8788 68.9824 0.196455 -5.55856 0.00953703 9.05906 0.230005 -1.13315 0.433071 6.63105 5.59709 -0.0 0.0 -0.0 11.5136 16.0288 -23.0492 2.11389 -10.2536 -64.5813 0.191687 5.42446 -0.00908076 13.7488 -0.278025 1.73008 0.870003 6.06809 -3.29775 0.0 0.0 0.0 11.0025 29.0832 -10.6513 -10.8845 0.292904 1.64222 6.88464 -12.37 -1.05508 -11.3049 0.0 0.0 -0.0 0.0 -0.0 6.70115 15.1658 9.29294 -19.1355 -0.304923 -2.90704 15.085 -28.3684 2.25068 1.18332 -0.0 -0.0 0.0 0.0 0.0 
4059.46 710.494 -378.672 -3.86644 49.9636 -5.56996 -1.52665 0.52883 1.33542 -1.52577 0.442791 1.36635 -1.51402 0.107991 1.43223 -1.51673 0.332807 1.39721 -5.36278 11.429 3.24974 -5.28845 18.6593 5.33137 -0.0 0.0 -0.0 5.11814 0.103629 9.89431 11.5412 24.631 69.3186 0.201232 -5.69283 0.0100053 9.62223 0.238351 -1.2046 0.504143 7.9913 6.60254 -0.0 0.0 -0.0 11.7715 19.0253 -23.4763 0.169231 -8.81833 -64.5022 0.203183 5.74766 -0.0101998 13.409 -0.276189 1.68672 0.812679 6.03575 -2.92415 0.0 0.0 0.0 12.593 29.2758 -11.8292 -13.7691 0.317821 2.08408 7.88252 -11.7625 -1.19906 -10.9713 0.0 0.0 -0.0 0.0 -0.0 6.23999 12.4853 9.27049 -19.4696 -0.301572 -2.9582 17.8132 -21.6231 2.53449 0.898003 -0.0 -0.0 0.0 0.0 0.0 
4055.33 710.474 -380.639 -4.3854 50.5833 -5.40525 -1.41799 0.737126 1.28641 -1.4173 0.653782 1.3307 -1.40093 0.324364 1.44669 -1.40343 0.54875 1.37733 -6.26752 10.9368 2.93961 -6.2293 18.1133 5.0548 -0.0 0.0 -0.0 4.86455 0.0487861 9.39829 11.1593 23.1503 69.5809 0.197302 -5.58235 0.00961916 9.1108 0.230801 -1.13971 0.45722 7.32539 6.03222 -0.0 0.0 -0.0 11.6603 18.0814 -23.2796 1.50348 -10.5344 -64.1389 0.180045 5.09679 -0.00801332 13.651 -0.277523 1.7176 0.778371 5.99098 -2.71134 0.0 0.0 0.0 13.5975 27.9133 -10.5094 -14.2163 0.319691 2.15266 7.41983 -11.5238 -1.12887 -11.266 0.0 0.0 -0.0 0.0 -0.0 6.75301 11.5339 8.9875 -19.7605 -0.298412 -3.00271 15.2117 -28.38 2.26874 1.1497 -0.0 -0.0 0.0 0.0 0.0 
4044.32 709.49 -381.142 -3.63682 49.8694 -5.92029 -1.47956 0.433846 1.21441 -1.47881 0.355697 1.23955 -1.47018 0.0542291 1.28842 -1.4724 0.257015 1.2637 -4.53066 11.6945 2.84338 -4.4265 19.3216 4.84656 -0.0 0.0 -0.0 5.04428 5.40957 9.87777 11.8692 23.5806 69.0698 0.224898 -6.35713 0.0124894 9.28685 0.233465 -1.16204 0.511062 8.90048 7.00529 -0.0 0.0 -0.0 11.4874 20.2976 -22.7404 -1.02571 -7.67609 -64.2192 0.197043 5.57509 -0.00959404 12.4178 -0.269365 1.5603 0.814419 5.82484 -3.0249 0.0 0.0 0.0 14.3738 30.634 -11.8386 -16.4532 0.321006 2.49585 9.88983 -13.7539 -1.51284 -11.395 0.0 0.0 -0.0 0.0 -0.0 6.43249 10.1819 10.182 -20.7868 -0.285455 -3.15966 16.9458 -22.3386 2.42718 2.24854 -0.0 -0.0 0.0 0.0 0.0 
4050.27 708.86 -381.254 -5.27612 51.4791 -4.62538 -1.47521 0.807753 1.17924 -1.47473 0.731084 1.22824 -1.458 0.422147 1.36558 -1.46005 0.632499 1.28179 -5.39971 11.4193 2.62262 -5.33083 19.1136 4.70153 -0.0 0.0 -0.0 5.54487 3.82786 10.7926 12.9971 23.6424 68.0975 0.239883 -6.7769 0.0142032 9.79555 0.240779 -1.22661 0.580173 5.64461 6.16953 -0.0 0.0 -0.0 11.276 19.6518 -22.305 -0.0710688 -9.91684 -63.5413 0.191037 5.40617 -0.00901941 13.1441 -0.274579 1.65292 0.771846 5.88592 -2.71163 0.0 0.0 0.0 17.1442 26.7353 -11.5651 -18.7142 0.308724 2.8425 8.71666 -11.362 -1.31864 -10.7407 0.0 0.0 -0.0 0.0 -0.0 7.18736 8.18454 9.84467 -19.499 -0.301263 -2.9627 16.4335 -26.4005 2.40984 1.23977 -0.0 -0.0 0.0 0.0 0.0 
4042.59 711.538 -383.104 -5.06709 51.3056 -4.44933 -1.62357 0.783878 1.01582 -1.62328 0.717654 1.06364 -1.60913 0.444567 1.20361 -1.6106 0.629064 1.11831 -5.1575 11.5488 2.55073 -5.07861 19.3701 4.61599 -0.0 0.0 -0.0 5.85003 5.07598 11.3741 13.2255 24.0624 67.8678 0.246322 -6.95704 0.014973 10.0748 0.244548 -1.26207 0.638195 4.57088 6.12332 -0.0 0.0 -0.0 11.0798 20.4371 -21.8036 -0.587477 -9.76665 -63.2019 0.202578 5.73065 -0.0101393 12.9886 -0.273562 1.63309 0.774343 5.82731 -2.75322 0.0 0.0 0.0 18.7436 26.4101 -11.8073 -21.0996 0.280949 3.20744 9.24942 -11.5729 -1.39826 -10.3763 0.0 0.0 -0.0 0.0 -0.0 7.32803 7.16173 9.75829 -19.6699 -0.299421 -2.98885 17.0706 -25.6087 2.48571 1.29621 -0.0 -0.0 0.0 0.0 0.0 
4023.19 708.596 -386.087 -2.63083 49.559 -6.03914 -1.80103 0.31938 0.664109 -1.80083 0.276475 0.683085 -1.7972 0.103915 0.729549 -1.79788 0.217827 0.703984 -3.71781 12.4669 4.02317 -3.56549 19.7009 6.06155 -0.0 0.0 -0.0 5.57609 9.01435 10.8625 12.94 25.1559 69.1151 0.262115 -7.39829 0.0169463 11.6615 0.262688 -1.46393 0.595285 8.00197 7.20169 -0.0 0.0 -0.0 10.9186 23.8178 -21.1511 -2.5381 -6.87969 -62.6527 0.207743 5.87575 -0.0106615 11.6482 -0.262559 1.46223 0.895189 5.74092 -3.60594 0.0 0.0 0.0 17.8492 27.767 -11.5031 -22.4684 0.258156 3.41624 13.3933 -10.0498 -1.97358 -9.51591 0.0 0.0 -0.0 0.0 -0.0 5.10218 6.15651 9.98583 -20.2217 -0.292937 -3.07327 17.5037 -20.3452 2.48008 1.86584 -0.0 -0.0 0.0 0.0 0.0 
4022.29 706.83 -394.924 -1.64697 50.6595 -7.24565 -2.06069 0.613379 1.1249 -2.06015 0.540561 1.16164 -2.04814 0.239589 1.25864 -2.05009 0.435347 1.20502 -4.66943 11.6909 2.34687 -4.57063 19.7114 4.36032 -0.0 0.0 -0.0 5.49188 6.14892 10.7123 15.1786 24.8616 67.7964 0.284374 -8.01869 0.019932 11.138 0.257322 -1.39728 0.682826 3.33501 5.92272 -0.0 0.0 -0.0 11.2113 23.1172 -21.8799 -2.67774 -8.96456 -63.5691 0.216358 6.11761 -0.0115615 12.291 -0.268335 1.54414 0.799738 6.07407 -2.82056 0.0 0.0 0.0 20.2648 21.9371 -10.3314 -26.149 0.172201 3.97442 9.70764 -10.3727 -1.45453 -10.1442 0.0 0.0 -0.0 0.0 -0.0 3.38254 8.96604 9.46866 -21.0117 -0.282241 -3.19402 18.8398 -26.2736 2.73519 2.54616 -0.0 -0.0 0.0 0.0 0.0 
4013.3 706.117 -396.783 -0.0345535 50.8131 -8.91762 -2.34582 0.59092 1.14787 -2.34524 0.516686 1.18314 -2.33343 0.204825 1.27468 -2.33547 0.403551 1.22634 -4.78905 11.8144 2.34156 -4.69263 19.9614 4.39385 -0.0 0.0 -0.0 5.176 6.55512 10.1351 16.1258 24.6423 69.4893 0.376031 -10.552 0.0347247 11.3283 0.259343 -1.42151 0.530121 3.10375 4.81464 -0.0 0.0 -0.0 11.3129 24.0363 -22.0233 -3.83635 -8.69034 -63.4249 0.207732 5.87546 -0.0106605 11.9997 -0.265831 1.50702 0.786107 6.06407 -2.73272 0.0 0.0 0.0 21.9706 19.7649 -7.44754 -24.5681 0.213516 3.73534 9.51046 -10.0368 -1.42332 -10.4173 0.0 0.0 -0.0 0.0 -0.0 0.398667 13.0484 9.53991 -21.3967 -0.276426 -3.2528 20.49 -27.3878 2.97557 3.24479 -0.0 -0.0 0.0 0.0 0.0 
